<?xml version="1.0" encoding="UTF-8" standalone="no"?>
<!DOCTYPE svg PUBLIC "-//W3C//DTD SVG 1.1//EN" "http://www.w3.org/Graphics/SVG/1.1/DTD/svg11.dtd">
<svg width="100%" height="100%" viewBox="0 0 128 128" version="1.1" xmlns="http://www.w3.org/2000/svg" xmlns:xlink="http://www.w3.org/1999/xlink" xml:space="preserve" xmlns:serif="http://www.serif.com/" style="fill-rule:evenodd;clip-rule:evenodd;stroke-linejoin:round;stroke-miterlimit:2;">
    <path d="M110.22,83.91C110.22,83.91 117.85,84.84 119.35,89.84C120.38,93.26 119.93,99.67 120.18,102.75C120.31,104.32 119.68,105.84 118.49,106.86C113.37,111.23 95.41,119.34 64.5,119.34C33.58,119.34 14.81,111.23 9.69,106.86C8.499,105.843 7.869,104.311 8,102.75C8.25,99.67 7.81,93.26 8.83,89.84C10.33,84.84 17.96,83.91 17.96,83.91" style="fill:rgb(0,135,0);fill-rule:nonzero;"/>
    <path d="M111.96,85.92C112.14,85.71 112.23,85.46 112.25,85.19C112.46,80.97 112.81,41.75 64.07,41.75C15.27,41.75 15.72,81.06 15.94,85.2C15.95,85.46 16.04,85.7 16.21,85.91C17.88,87.97 28.67,99.33 63.83,99.33C98.94,99.33 110.19,88 111.96,85.92Z" style="fill:rgb(242,153,0);fill-rule:nonzero;"/>
    <path d="M29.36,76.9C29.32,76.9 29.4,76.91 29.36,76.9C27.96,76.55 27.21,75.06 27.21,72.99C27.21,68.2 29.07,64.16 30.95,61.65C34.37,57.08 40.03,56.23 40.39,56.21C42.18,56.08 44.27,56.08 44.79,57.78C45.11,58.83 44.44,59.99 42.31,61.11C40.48,62.06 38.62,63.9 37.59,65.12C35.98,67.02 34.55,69.85 33.94,73.31C33.53,75.58 30.99,77.31 29.36,76.9Z" style="fill:white;fill-rule:nonzero;"/>
    <path d="M12.2,95.71C16.86,99.21 34.37,107.07 63.6,106.83C92.83,107.07 111.3,99.21 115.97,95.71C118.61,93.73 119.27,91.39 119.36,89.71C118.25,86.2 114.55,84.73 112.26,84.17C112.26,84.33 112.26,84.48 112.25,84.62C112.23,85.24 111.97,85.82 111.51,86.22C108.68,88.7 96.2,97.16 63.2,97.16C24.53,97.16 15.95,85.42 15.95,85.42C15.95,85.42 15.91,85.02 15.9,84.31C13.5,85.04 9.58,86.45 8.84,89.91L8.84,89.92C8.96,91.58 9.67,93.82 12.2,95.71Z" style="fill:rgb(0,112,160);fill-rule:nonzero;"/>
    <path d="M19.25,31L30.88,42.62L37.04,38.46L30.42,23.17L19.25,31ZM88.62,19.38L85.75,35L91.91,37.67L99.72,23.85L88.62,19.38ZM98.78,40.16L107,27L115.58,33.67L104.4,44.88L98.78,40.16Z" style="fill:rgb(191,0,8);fill-rule:nonzero;"/>
    <path d="M69.3,44.91C68.35,45.38 66.63,46.08 64.38,46.16C61.68,46.25 59.62,45.4 58.64,44.91L58.64,37.7L69.3,37.7L69.3,44.91Z" style="fill:rgb(242,153,0);fill-rule:nonzero;"/>
    <path d="M63.97,23.5C57.12,23.5 51.58,25.76 51.58,28.55L51.58,33.48C51.58,36.27 57.13,38.53 63.97,38.53C70.81,38.53 76.36,36.27 76.36,33.48L76.36,28.55C76.36,25.76 70.81,23.5 63.97,23.5Z" style="fill:rgb(242,153,0);fill-rule:nonzero;"/>
</svg>
